<svg xmlns="http://www.w3.org/2000/svg" viewBox="0 0 512 512">
  <defs>
    <clipPath id="circle-clip">
      <circle cx="256" cy="240" r="200"/>
    </clipPath>
  </defs>
  <!-- Dark circle background -->
  <circle cx="256" cy="240" r="200" fill="#1a1a1a"/>
  <!-- Letter O shape (outer) -->
  <path d="M256 80c-88.4 0-160 71.6-160 160s71.6 160 160 160 160-71.6 160-160S344.4 80 256 80zm0 260c-55.2 0-100-44.8-100-100s44.8-100 100-100 100 44.8 100 100-44.8 100-100 100z" fill="#F5F0EA"/>
  <!-- Diagonal slashes -->
  <line x1="200" y1="320" x2="360" y2="140" stroke="#F5F0EA" stroke-width="20" stroke-linecap="round"/>
  <line x1="220" y1="360" x2="380" y2="180" stroke="#F5F0EA" stroke-width="16" stroke-linecap="round"/>
  <line x1="240" y1="390" x2="400" y2="210" stroke="#F5F0EA" stroke-width="12" stroke-linecap="round"/>
  <!-- ORGRES text -->
  <text x="256" y="490" text-anchor="middle" font-family="'Inter', Arial, sans-serif" font-weight="700" font-size="58" fill="#1a1a1a" letter-spacing="8">ORGRES</text>
</svg>